<?xml version="1.0" ?><!DOCTYPE svg  PUBLIC '-//W3C//DTD SVG 1.1//EN'  'http://www.w3.org/Graphics/SVG/1.1/DTD/svg11.dtd'><svg height="100%" style="fill-rule:evenodd;clip-rule:evenodd;stroke-linejoin:round;stroke-miterlimit:2;" version="1.1" viewBox="0 0 7500 3146" width="100%" xml:space="preserve" xmlns="http://www.w3.org/2000/svg" xmlns:serif="http://www.serif.com/" xmlns:xlink="http://www.w3.org/1999/xlink"><g transform="matrix(4.16667,0,0,4.16667,0,0)"><path d="M1136.45,185.802L1076.36,185.802L1076.36,521.872C1130.97,523.751 1185.35,526.506 1239.51,530.117L1239.51,470.908C1205.25,468.623 1170.9,466.686 1136.45,465.082L1136.45,185.802ZM1614,185.836L1547.99,185.836L1504.48,286.687L1465.39,185.836L1400.37,185.836L1470.24,366.043L1393.97,542.832C1415.07,544.89 1436.11,547.086 1457.13,549.406L1501.49,446.615L1545.42,559.927C1568.3,562.869 1591.12,565.939 1613.9,569.19L1614,569.151L1535.72,367.26L1614,185.836ZM870.087,518.935L930.18,518.922L930.18,382.218L1011.64,382.218L1011.64,323.009L930.18,323.009L930.18,245.581L1037.84,245.581L1037.84,185.839L870.087,185.839L870.087,518.935ZM645.688,245.577L708.581,245.577L708.581,522.456C728.577,521.7 748.614,521.078 768.672,520.553L768.672,245.577L831.562,245.577L831.562,185.836L645.688,185.836L645.688,245.577ZM440.248,539.664C495.633,534.631 551.273,530.483 607.166,527.264L607.166,468.048C571.455,470.112 535.845,472.556 500.339,475.348L500.339,385.707C523.636,385.475 554.313,384.764 581.49,385.102L581.49,325.888C559.778,325.835 524.882,326.191 500.339,326.505L500.339,245.581L607.166,245.581L607.166,185.839L440.248,185.839L440.248,539.664ZM322.372,402.781L244.107,185.836L186.997,185.836L186.997,569.198C206.989,566.352 227.019,563.627 247.088,561.013L247.088,352.542L316.679,552.453C338.567,549.915 360.494,547.511 382.464,545.251L382.464,185.836L322.372,185.836L322.372,402.781ZM1289.05,533.682C1309.11,535.217 1329.14,536.864 1349.15,538.644L1349.15,185.836L1289.05,185.836L1289.05,533.682Z" style="fill:rgb(237,28,36);fill-rule:nonzero;"/></g></svg>